<?xml version="1.0" encoding="UTF-8"?>
<svg width="22px" height="16px" viewBox="0 0 22 16" version="1.1" xmlns="http://www.w3.org/2000/svg" xmlns:xlink="http://www.w3.org/1999/xlink">
    <!-- Generator: Sketch 41.2 (35397) - http://www.bohemiancoding.com/sketch -->
    <title></title>
    <desc>Created with Sketch.</desc>
    <defs></defs>
    <g id="Page-1" stroke="none" stroke-width="1" fill="none" fill-rule="evenodd">
        <g id="Artboard" transform="translate(-352.000000, -570.000000)" fill="#FFFFFF">
            <g id="Group-4-Copy" transform="translate(295.000000, 376.000000)">
                <g id="Group-2" transform="translate(44.000000, 179.000000)">
                    <g id="Group-5" transform="translate(13.000000, 15.000000)">
                        <path d="M15.7143044,8.14284778 C15.7143044,8.41293738 15.5792596,8.67075019 15.3460004,8.805795 L9.06027866,12.7343711 C8.93751065,12.8203087 8.79018905,12.8571391 8.64286745,12.8571391 C8.50782264,12.8571391 8.38505464,12.8203087 8.26228664,12.7589247 C8.01675063,12.6238799 7.85715222,12.3537903 7.85715222,12.0714239 L7.85715222,4.21427166 C7.85715222,3.93190526 8.01675063,3.66181565 8.26228664,3.52677085 C8.50782264,3.39172604 8.81474265,3.39172604 9.06027866,3.55132445 L15.3460004,7.47990056 C15.5792596,7.61494536 15.7143044,7.87275817 15.7143044,8.14284778 Z M22.0000262,8.14284778 C22.0000262,6.38726533 22.0000262,4.52119167 21.6194454,2.81471642 C21.3493558,1.61158999 20.3917654,0.727660365 19.2377461,0.592615562 C16.5122965,0.285695553 13.7500164,0.285695553 11.0000131,0.285695553 C8.25000983,0.285695553 5.48772976,0.285695553 2.76228008,0.592615562 C1.60826085,0.727660365 0.662947219,1.61158999 0.392857611,2.81471642 C0,4.52119167 0,6.38726533 0,8.14284778 C0,9.89843023 0,11.7645039 0.380580811,13.4709791 C0.650670419,14.6741056 1.60826085,15.5580352 2.76228008,15.69308 C5.48772976,16 8.25000983,16 11.0000131,16 C13.7500164,16 16.5122965,16 19.2377461,15.69308 C20.3917654,15.5580352 21.3493558,14.6741056 21.6071686,13.4709791 C22.0000262,11.7645039 22.0000262,9.89843023 22.0000262,8.14284778 Z" id=""></path>
                    </g>
                </g>
            </g>
        </g>
    </g>
</svg>