<?xml version="1.0" encoding="UTF-8" standalone="no"?>
<svg width="200px" height="200px" viewBox="0 0 200 200" version="1.1" xmlns="http://www.w3.org/2000/svg" xmlns:xlink="http://www.w3.org/1999/xlink">
    <!-- Generator: Sketch 3.6.1 (26313) - http://www.bohemiancoding.com/sketch -->
    <title>udemy</title>
    <desc>Created with Sketch.</desc>
    <defs></defs>
    <g id="New-Site" stroke="none" stroke-width="1" fill="none" fill-rule="evenodd">
        <g id="udemy">
            <g id="Group-2" transform="translate(1.000000, 1.000000)" fill="#333333">
                <path d="M165,62.1328125 C161.390625,67.6757812 156.75,72.4453125 151.464844,76.1835937 C151.59375,77.34375 151.59375,78.5039062 151.59375,79.6640625 C151.59375,115.5 124.265625,156.75 74.5078125,156.75 C59.1679687,156.75 44.9882812,152.238281 33,144.632812 C35.0625,144.890625 37.2539062,145.019531 39.4453125,145.019531 C52.2070312,145.019531 63.8085937,140.636719 73.0898437,133.417969 C61.2304687,133.160156 51.3046875,125.296875 47.8242187,114.597656 C49.5,114.855469 51.1757812,115.113281 52.8515625,115.113281 C55.3007812,115.113281 57.1054687,114.726562 59.4257812,114.082031 C47.0507812,111.632812 37.125,100.675781 37.125,87.5273437 L37.125,87.2695312 C41.25,89.203125 45.5039062,90.4921875 50.015625,90.6210937 C42.6679687,85.7226562 38.2851562,77.4726562 38.2851562,68.0625 C38.2851562,63.1640625 39.703125,58.3945312 42.0234375,54.3984375 C55.4296875,70.8984375 75.4101562,81.5976562 97.96875,82.7578125 C97.453125,80.8242187 97.3242187,78.6328125 97.3242187,76.5703125 C97.3242187,61.6171875 109.441406,49.5 124.394531,49.5 C132.128906,49.5 139.21875,52.7226563 144.117187,58.0078125 C150.304687,56.8476562 156.105469,54.5273438 161.390625,51.4335938 C159.328125,57.75 155.074219,63.1640625 149.402344,66.515625 C154.945312,65.7421875 160.101562,64.3242187 165,62.1328125 L165,62.1328125 Z M198,37.125 C198,16.6289063 181.371094,0 160.875,0 L37.125,0 C16.6289062,0 0,16.6289063 0,37.125 L0,160.875 C0,181.371094 16.6289062,198 37.125,198 L160.875,198 C181.371094,198 198,181.371094 198,160.875 L198,37.125 Z" id="Type-something"></path>
                <rect id="Rectangle-6" x="17" y="31" width="160" height="136"></rect>
            </g>
            <g transform="translate(1.000000, 1.000000)" id="Group">
                <g>
                    <path d="M60.4494,0 L175.38246,0 C187.87428,0 198,10.12572 198,22.61754 L198,135.78246 C198,170.14338 170.14338,198 135.78246,198 L61.95618,198 C27.7398,198 0,170.2602 0,136.04382 L0,60.4494 C0,27.06264 27.06264,0 60.4494,0" id="Shape" fill="#333333"></path>
                    <path d="M158.4,37.62 L158.4,114.36084 C158.4,139.77612 137.79612,160.38 112.38084,160.38 L87.05862,160.38 C60.84738,160.38 39.6,139.13262 39.6,112.92336 L39.6,58.30506 C39.6,46.88046 48.86046,37.62 60.28506,37.62 L67.32,37.62 L67.32,112.23036 C67.32,124.60734 77.35266,134.64 89.72964,134.64 L108.49806,134.64 C120.74832,134.64 130.68,124.70832 130.68,112.45806 L130.68,57.96648 C130.68,46.72998 139.78998,37.62 151.02648,37.62 L158.4,37.62" id="Shape" fill="#FFFFFF"></path>
                </g>
            </g>
        </g>
    </g>
</svg>